<?xml version="1.0" encoding="UTF-8" standalone="no"?>
<svg
   version="1.1"
   width="621"
   height="236"
   style="fill:#221f1f"
   id="svg1936"
   sodipodi:docname="Utazon_logo-dark.svg"
   inkscape:export-filename="Amazon_logo.png"
   inkscape:export-xdpi="400"
   inkscape:export-ydpi="400"
   inkscape:version="1.2.2 (732a01da63, 2022-12-09)"
   xmlns:inkscape="http://www.inkscape.org/namespaces/inkscape"
   xmlns:sodipodi="http://sodipodi.sourceforge.net/DTD/sodipodi-0.dtd"
   xmlns="http://www.w3.org/2000/svg"
   xmlns:svg="http://www.w3.org/2000/svg">
  <defs
     id="defs1060" />
  <sodipodi:namedview
     id="namedview1058"
     pagecolor="#ffffff"
     bordercolor="#666666"
     borderopacity="1.0"
     inkscape:showpageshadow="2"
     inkscape:pageopacity="0.0"
     inkscape:pagecheckerboard="0"
     inkscape:deskcolor="#d1d1d1"
     showgrid="false"
     inkscape:zoom="1.4705007"
     inkscape:cx="249.91488"
     inkscape:cy="28.5617"
     inkscape:window-width="1920"
     inkscape:window-height="1009"
     inkscape:window-x="-4"
     inkscape:window-y="-1"
     inkscape:window-maximized="1"
     inkscape:current-layer="svg1936" />
  <path
     d="m 360.57849,165.98546 c -14.21385,25.79739 -34.81594,39.56123 -52.55395,39.56123 -24.87156,0 -47.26236,-22.65135 -64.20186,-60.32496 -1.33087,-2.96252 -0.13841,-6.9999 1.45867,-4.69283 18.281,26.19064 40.88475,41.94697 64.23377,41.94697 15.74702,0 33.06981,-8.02237 48.99784,-24.67006 2.40623,-2.51683 4.41852,3.88009 2.06553,8.17965"
     id="path8"
     style="fill:#5fbcd3;stroke-width:0.637271" />
  <path
     d="m 373.59589,149.33777 c -4.45688,-5.71527 -29.57261,-2.70033 -40.84585,-1.36327 -3.43442,0.41947 -3.95874,-2.56925 -0.86517,-4.71905 20.00346,-14.07844 52.82696,-10.01483 56.65462,-5.2958 3.82764,4.74526 -0.99624,37.64741 -19.79373,53.35128 -2.88385,2.41195 -5.63662,1.12734 -4.35198,-2.07113 4.2209,-10.53917 13.68519,-34.16054 9.20211,-39.90203"
     id="path10"
     style="fill:#5fbcd3" />
  <path
     d="m 333.53655,43.867397 v -13.68519 c 0,-2.07113 1.57301,-3.46062 3.46062,-3.46062 h 61.26875 c 1.96628,0 3.53929,1.41571 3.53929,3.46062 v 11.71893 c -0.0262,1.96626 -1.67788,4.53551 -4.61418,8.59912 l -31.74859,45.32893 c 11.79759,-0.28837 24.25059,1.46814 34.94706,7.498023 2.41195,1.36327 3.06737,3.35575 3.25089,5.32203 v 14.60278 c 0,1.99248 -2.20222,4.32576 -4.5093,3.1198 -18.84992,-9.88376 -43.887,-10.95865 -64.72939,0.10487 -2.12356,1.15354 -4.35199,-1.15354 -4.35199,-3.14602 v -13.86871 c 0,-2.22843 0.0262,-6.02989 2.25463,-9.41186 l 36.78224,-52.748293 h -32.01076 c -1.96626,0 -3.53927,-1.38948 -3.53927,-3.43441"
     id="path12"
     style="fill:#fefefe;fill-opacity:1" />
  <path
     d="m 454.5535,24.965057 c 27.65877,0 42.62858,23.75246 42.62858,53.95427 0,29.179343 -16.54284,52.328813 -42.62858,52.328813 -27.16066,0 -41.94697,-23.75246 -41.94697,-53.351273 0,-29.78234 14.96983,-52.93181 41.94697,-52.93181 m 0.15729,19.53156 c -13.73761,0 -14.60278,18.71881 -14.60278,30.38532 0,11.69271 -0.18352,36.651143 14.44549,36.651143 14.44548,0 15.12712,-20.134523 15.12712,-32.404033 0,-8.07477 -0.34082,-17.72257 -2.779,-25.3779 -2.09735,-6.65906 -6.26581,-9.25453 -12.19083,-9.25453"
     id="path16"
     style="fill:#fefefe;fill-opacity:1" />
  <path
     d="m 533.04673,129.25566 h -18.56152 c -1.86141,-0.13107 -3.35577,-1.62543 -3.35577,-3.46061 l -0.0262,-95.691493 c 0.1573,-1.75653 1.7041,-3.1198 3.59171,-3.1198 h 17.27691 c 1.62543,0.0786 2.96249,1.17976 3.32954,2.67412 v 14.62899 h 0.3408 c 5.21717,-13.0822 12.53165,-19.32181 25.40412,-19.32181 8.36317,0 16.51662,3.01494 21.75999,11.27324 4.87633,7.65532 4.87633,20.5278 4.87633,29.78233 v 60.220113 c -0.20973,1.67786 -1.75653,3.01492 -3.59169,3.01492 h -18.69262 c -1.70411,-0.13107 -3.11982,-1.38948 -3.30332,-3.01492 V 74.278947 c 0,-10.46052 1.20597,-25.77117 -11.66651,-25.77117 -4.5355,0 -8.70399,3.04117 -10.77512,7.65532 -2.62167,5.84637 -2.96249,11.66651 -2.96249,18.11585 v 51.516103 c -0.0262,1.91383 -1.65166,3.46061 -3.64414,3.46061"
     id="path18"
     style="fill:#fefefe;fill-opacity:1" />
  <path
     d="m 112.78719,27.38918 20.10351,-0.0077 c 2.21668,0.130295 3.99694,1.624032 3.99785,3.459212 l 0.0786,95.691468 c -0.18645,1.7566 -2.02774,3.12051 -4.27555,3.1213 l -18.57377,0.007 c -1.93564,-0.0779 -3.52839,-1.17852 -3.96622,-2.67273 l -0.007,-14.62899 -0.40584,1.4e-4 c -6.2063,13.08453 -14.913456,19.32719 -30.242314,19.33255 -9.95907,0.003 -17.669893,-3.00806 -23.917922,-11.26418 -5.81065,-7.65329 -5.817032,-20.525761 -5.821622,-29.780292 L 49.727042,30.42685 c 0.24892,-1.677957 2.090225,-3.015651 4.275578,-3.016415 l 20.259632,-0.0078 c 2.029361,0.130361 3.715847,1.388181 3.93517,3.013544 l 0.02577,51.961789 c 0.0052,10.460519 -1.42332,25.771672 13.905552,25.766312 5.40098,-0.002 10.363406,-3.0448 12.827476,-7.65981 3.11905,-5.84746 3.52202,-11.667741 3.51882,-18.11708 l -0.0255,-51.516099 c 0.0303,-1.913841 1.96512,-3.461297 4.33782,-3.462127"
     id="path18-4"
     style="fill:#fefefe;stroke-width:1.09125;fill-opacity:1"
     sodipodi:nodetypes="cccccccccccscccccccccc" />
  <path
     d="m 284.69456,83.559707 v -4.03739 c -13.47547,0 -27.71121,2.88385 -27.71121,18.77125 0,8.048573 4.16847,13.501693 11.32567,13.501693 5.24337,0 9.93618,-3.22467 12.8987,-8.46805 3.67034,-6.449353 3.48684,-12.505443 3.48684,-19.767503 m 18.79747,45.433783 c -1.23219,1.10111 -3.01495,1.17976 -4.40444,0.4457 -6.18716,-5.1385 -7.28828,-7.52423 -10.69647,-12.42678 -10.22457,10.4343 -17.4604,13.55409 -30.72614,13.55409 -15.67768,0 -27.89471,-9.67401 -27.89471,-29.04824 0,-15.127133 8.20587,-25.430353 19.87236,-30.463983 10.1197,-4.45688 24.25058,-5.24337 35.05193,-6.47556 v -2.41195 c 0,-4.43066 0.34082,-9.67403 -2.25465,-13.50167 -2.28088,-3.43442 -6.63286,-4.85013 -10.46053,-4.85013 -7.10475,0 -13.44924,3.64414 -14.99603,11.19459 -0.31461,1.67789 -1.5468,3.32955 -3.22467,3.4082 l -18.08962,-1.94006 c -1.52058,-0.3408 -3.19846,-1.57301 -2.77899,-3.90629 4.16848,-21.91728 23.96219,-28.52394 41.68479,-28.52394 9.07101,0 20.92102,2.41195 28.07822,9.28076 9.07104,8.46804 8.20587,19.7675 8.20587,32.06321 v 29.04826 c 0,8.730223 3.61794,12.557863 7.02613,17.276913 1.20597,1.67786 1.46814,3.69656 -0.0524,4.95497 -3.80144,3.17225 -10.56538,9.07104 -14.28819,12.37436 l -0.0524,-0.0525"
     id="use28"
     style="fill:#fefefe;fill-opacity:1" />
  <g
     aria-label="ut"
     id="text1756"
     style="font-weight:500;font-size:192px;line-height:1.25;font-family:'Motoya Maru Pr6';-inkscape-font-specification:'Motoya Maru Pr6 Medium';fill:#fefefe;fill-opacity:1"
     transform="matrix(1,0,0,0.9245262,-0.54920834,11.645167)">
    <path
       d="m 196.42044,132.08861 c -10.88,0 -18.944,-2.56 -24.192,-7.68 -5.12,-5.12 -7.68,-13.056 -7.68,-23.808 V 55.339882 h -9.984 c -1.664,0 -2.88,-0.384 -3.648,-1.152 -0.768,-0.768 -1.152,-1.984 -1.152,-3.648 v -10.03527 c 0,-1.664 0.32,-4.88 0.96,-5.648 0.768,-0.768 1.984,-1.344 3.648,-1.728 l 10.944,-0.304 -0.544,-21.888 c 0.256,-1.7919998 0.768,-3.0719997 1.536,-3.8399997 0.896,-0.768 2.176,-1.152 3.84,-1.152 h 17.632 c 1.792,0 3.008,0.384 3.648,1.152 0.768,0.64 1.152,1.8559999 1.152,3.6479997 v 21.696 h 21.696 c 1.792,0 3.008,0.384 3.648,1.152 0.768,0.64 1.152,1.856 1.152,3.648 v 13.29927 c 0,1.664 -0.384,2.88 -1.152,3.648 -0.64,0.768 -1.856,1.152 -3.648,1.152 h -21.696 v 43.91673 c 0,4.095998 1.024,6.975998 3.072,8.639998 2.048,1.664 5.504,2.496 10.368,2.496 2.048,0 4.032,-0.128 5.952,-0.384 1.92,-0.384 3.392,-0.576 4.416,-0.576 2.176,0 3.264,1.408 3.264,4.224 v 9.408 c 0,2.176 -0.32,3.712 -0.96,4.608 -0.64,0.896 -1.728,1.536 -3.264,1.92 -5.632,1.664 -11.968,2.496 -19.008,2.496 z"
       style="font-weight:bold;font-family:'Amazon Ember Display';-inkscape-font-specification:'Amazon Ember Display Bold';fill:#fefefe;fill-opacity:1"
       id="path1810"
       sodipodi:nodetypes="scscsssscccccsscscscsscscssscsssscs" />
  </g>
</svg>
