<?xml version="1.0" encoding="UTF-8" standalone="no"?>
<svg
   width="62"
   height="20"
   viewBox="0 0 762.2364 243.6087"
   fill="000000"
   version="1.1"
   id="svg30"
   sodipodi:docname="pride - コピー.svg"
   inkscape:version="1.3 (0e150ed6c4, 2023-07-21)"
   xmlns:inkscape="http://www.inkscape.org/namespaces/inkscape"
   xmlns:sodipodi="http://sodipodi.sourceforge.net/DTD/sodipodi-0.dtd"
   xmlns="http://www.w3.org/2000/svg"
   xmlns:svg="http://www.w3.org/2000/svg">
  <defs
     id="defs34">
    <inkscape:path-effect
       effect="fillet_chamfer"
       id="path-effect1"
       is_visible="true"
       lpeversion="1"
       nodesatellites_param="F,0,0,1,0,2.1770147,0,1 @ F,0,0,1,0,5.3258515,0,1 @ F,0,0,1,0,3.9062697,0,1 @ F,0,0,1,0,6.5569904,0,1 @ F,0,0,1,0,6.8981514,0,1 @ F,0,0,1,0,6.8867437,0,1"
       radius="0"
       unit="px"
       method="auto"
       mode="F"
       chamfer_steps="1"
       flexible="false"
       use_knot_distance="true"
       apply_no_radius="true"
       apply_with_radius="true"
       only_selected="false"
       hide_knots="false" />
  </defs>
  <sodipodi:namedview
     id="namedview32"
     pagecolor="#ffffff"
     bordercolor="#666666"
     borderopacity="1.0"
     inkscape:showpageshadow="2"
     inkscape:pageopacity="0.0"
     inkscape:pagecheckerboard="0"
     inkscape:deskcolor="#d1d1d1"
     showgrid="false"
     inkscape:zoom="8"
     inkscape:cx="13.25"
     inkscape:cy="7.6875"
     inkscape:window-width="1920"
     inkscape:window-height="1009"
     inkscape:window-x="-4"
     inkscape:window-y="-1"
     inkscape:window-maximized="1"
     inkscape:current-layer="g878" />
  <g
     transform="translate(-155.62,-165.2)"
     id="g28"
     style="fill:#000000;fill-opacity:1">
    <g
       id="g878"
       transform="translate(13.438366)">
      <path
         d="m 365.11003,386.85397 c -1.90155,0 -3.29603,-0.3803 -4.12005,-1.20432 -0.88739,-0.824 -1.33108,-2.21848 -1.33108,-4.24681 V 236.12381 c 0,-2.02832 0.44369,-3.4228 1.33108,-4.24681 0.88741,-0.82401 2.28187,-1.20433 4.12005,-1.20433 h 15.65617 c 3.35941,0 5.38774,1.58464 6.08497,4.8173 l 1.52125,5.64127 c 4.37358,-4.18342 9.63456,-7.54284 15.78294,-10.01487 6.14837,-2.47202 12.4235,-3.67635 18.82542,-3.67635 14.07153,0 25.22733,5.13422 33.46743,15.46601 8.24008,10.3318 12.29673,24.27657 12.29673,41.83428 0,12.04319 -2.02833,22.56515 -6.08499,31.56586 -4.05665,9.00071 -9.57118,15.9097 -16.54355,20.79037 -6.97238,4.88066 -14.95892,7.2893 -23.95962,7.2893 -5.95822,0 -11.59952,-0.95077 -16.98726,-2.85233 -5.38776,-1.90156 -9.95149,-4.50035 -13.69123,-7.85978 v 47.72911 c 0,2.02833 -0.3803,3.42281 -1.20432,4.24681 -0.824,0.82402 -2.21848,1.20432 -4.2468,1.20432 z m 47.7291,-66.42776 c 8.11331,0 14.13491,-2.78894 18.00142,-8.30346 3.8665,-5.51453 5.76807,-14.26168 5.76807,-26.11474 0,-12.04319 -1.90157,-20.85375 -5.6413,-26.36827 -3.80312,-5.51451 -9.82471,-8.30347 -18.0648,-8.30347 -7.54284,0 -14.64199,1.96494 -21.36084,5.89483 v 57.30028 c 6.33853,3.92989 13.43768,5.89483 21.29745,5.89483 z"
         id="path2"
         style="fill:#0171d7;fill-opacity:1;stroke-width:0.633853" />
      <path
         d="m 495.5569,341.9772 c -1.90155,0 -3.29603,-0.44369 -4.12003,-1.33108 -0.82401,-0.8874 -1.33109,-2.21849 -1.33109,-4.12005 V 236.12381 c 0,-2.02832 0.4437,-3.4228 1.33109,-4.24681 0.88739,-0.82401 2.21848,-1.20433 4.12003,-1.20433 h 15.71955 c 3.35942,0 5.38776,1.58464 6.08499,4.8173 l 2.85233,11.78965 c 5.83144,-6.40191 11.28259,-10.90226 16.48018,-13.62784 5.1342,-2.66218 10.64871,-4.05664 16.48017,-4.05664 h 3.04249 c 2.02832,0 3.48619,0.3803 4.37359,1.2043 0.88739,0.82401 1.33108,2.21848 1.33108,4.24682 v 18.31834 c 0,1.90155 -0.3803,3.23264 -1.20431,4.12005 -0.82401,0.88739 -2.21849,1.33108 -4.24682,1.33108 -1.01416,0 -2.34525,-0.0634 -3.92989,-0.25353 -1.58463,-0.12672 -3.61295,-0.19016 -6.08499,-0.19016 -3.35941,0 -7.41606,0.50707 -12.16996,1.39448 -4.81728,0.95077 -8.87394,2.15509 -12.16997,3.61296 v 73.14659 c 0,1.90156 -0.38031,3.23265 -1.20432,4.12005 -0.82401,0.88739 -2.21849,1.33108 -4.24681,1.33108 z"
         id="path4"
         style="fill:#0171d7;fill-opacity:1;stroke-width:0.633853" />
      <path
         d="m 593.10684,213.43188 c -5.51453,0 -9.95149,-1.52125 -13.31091,-4.56373 -3.35942,-3.04251 -5.00743,-7.16254 -5.00743,-12.42352 0,-5.26097 1.64801,-9.38101 5.00743,-12.42351 3.35942,-3.0425 7.73301,-4.56374 13.31091,-4.56374 5.51451,0 9.95148,1.52124 13.31091,4.56374 3.35941,3.0425 5.00744,7.16254 5.00744,12.42351 0,5.26098 -1.64803,9.38101 -5.00744,12.42352 -3.35943,3.04248 -7.7964,4.56373 -13.31091,4.56373 z M 582.64827,341.9772 c -1.90157,0 -3.23266,-0.44369 -4.12005,-1.33108 -0.88739,-0.8874 -1.33109,-2.21849 -1.33109,-4.12005 V 236.12381 c 0,-2.02832 0.4437,-3.4228 1.33109,-4.24681 0.88739,-0.82401 2.21848,-1.20433 4.12005,-1.20433 h 20.91713 c 2.02833,0 3.42281,0.38032 4.24683,1.20433 0.824,0.82401 1.2043,2.21849 1.2043,4.24681 v 100.40226 c 0,1.90156 -0.3803,3.23265 -1.2043,4.12005 -0.82402,0.88739 -2.2185,1.33108 -4.24683,1.33108 z"
         id="path6"
         style="fill:#0171d7;fill-opacity:1;stroke-width:0.633853" />
      <path
         d="m 810.32358,345.20986 c -18.00141,0 -31.8194,-4.94405 -41.51735,-14.83216 -9.63456,-9.88811 -14.45184,-24.02302 -14.45184,-42.46813 0,-18.88881 4.94405,-33.72095 14.83214,-44.43308 9.88811,-10.7121 23.57932,-16.09985 41.20043,-16.09985 13.50106,0 24.0864,3.29603 31.69264,9.82472 7.60623,6.52869 11.40935,15.27585 11.40935,26.11473 0,10.90226 -4.12004,19.14235 -12.29675,24.72025 -8.24007,5.5779 -20.28328,8.36686 -36.25637,8.36686 -8.30347,0 -15.46601,-0.82402 -21.55098,-2.40864 0.88739,9.76134 3.8031,16.73371 8.81054,20.91713 5.00744,4.18343 12.61367,6.33854 22.75532,6.33854 4.05665,0 8.04992,-0.25355 11.85304,-0.76064 3.86649,-0.50707 9.19086,-1.648 16.03647,-3.35941 0.4437,-0.12672 0.8874,-0.25355 1.33109,-0.31693 0.4437,-0.0634 0.82402,-0.12672 1.07755,-0.12672 2.47203,0 3.67635,1.64801 3.67635,5.00743 v 10.01487 c 0,2.34526 -0.31692,3.9299 -0.95078,4.88067 -0.63384,0.95078 -1.90156,1.7748 -3.80312,2.53541 -10.71211,4.05665 -21.93129,6.08499 -33.84773,6.08499 z m -7.22592,-68.39271 c 7.41608,0 12.80382,-1.14094 16.09987,-3.35942 3.29602,-2.21848 5.00742,-5.70467 5.00742,-10.3318 0,-9.12747 -5.45112,-13.69121 -16.35339,-13.69121 -13.94476,0 -21.9947,8.557 -24.21318,25.73442 5.89483,1.07755 12.36013,1.64801 19.45928,1.64801 z"
         id="path10"
         style="fill:#0171d7;fill-opacity:1;stroke-width:0.633853" />
      <text
         xml:space="preserve"
         style="font-weight:500;font-size:213.162px;line-height:1.25;font-family:'Motoya Maru Pr6';-inkscape-font-specification:'Motoya Maru Pr6 Medium';fill:#0171d7;fill-opacity:1;stroke-width:9.99193"
         x="619.11627"
         y="340.01596"
         id="text478"><tspan
           sodipodi:role="line"
           id="tspan476"
           style="font-style:normal;font-variant:normal;font-weight:bold;font-stretch:normal;font-size:213.162px;font-family:'Amazon Ember Display';-inkscape-font-specification:'Amazon Ember Display Bold';fill:#0171d7;fill-opacity:1;stroke-width:9.99193"
           x="619.11627"
           y="340.01596">d</tspan></text>
      <path
         style="color:#000000;fill:#ef9800;fill-opacity:1;stroke-width:0.952616;-inkscape-stroke:none"
         d="m 414.86195,247.27031 -70.02469,86.20176 a 4.3343351,4.3343351 179.94844 0 1 -6.7235,0.006 l -26.8071,-32.87899 a 8.1066599,8.1066599 25.081204 0 0 -6.37444,-2.98346 l -25.6603,0.28948 a 3.3027619,3.3027619 116.08811 0 0 -2.59428,5.29836 l 59.04828,77.85683 a 5.3424955,5.3424955 0.57969516 0 0 8.44726,0.0855 L 446.8375,251.32195 a 3.3753491,3.3753491 64.44736 0 0 -2.61469,-5.46886 l -25.81131,-0.25133 a 4.5164677,4.5164677 154.82302 0 0 -3.54955,1.66855 z"
         id="path534"
         sodipodi:nodetypes="ccccccc"
         inkscape:path-effect="#path-effect1"
         inkscape:original-d="m 416.23459,245.58056 -74.75536,92.02531 -32.64099,-40.03426 -36.12289,0.4075 67.17902,88.57746 111.21486,-140.63643 z"
         transform="matrix(1.1465905,0,0,1.3743713,-155.28065,-143.6879)" />
    </g>
  </g>
</svg>
