<?xml version="1.0" encoding="UTF-8" standalone="no"?>
<svg
   width="62"
   height="46"
   viewBox="0 0 762.2364 560.3"
   fill="000000"
   version="1.1"
   id="svg30"
   sodipodi:docname="pride.svg"
   inkscape:version="1.2.2 (732a01da63, 2022-12-09)"
   xmlns:inkscape="http://www.inkscape.org/namespaces/inkscape"
   xmlns:sodipodi="http://sodipodi.sourceforge.net/DTD/sodipodi-0.dtd"
   xmlns="http://www.w3.org/2000/svg"
   xmlns:svg="http://www.w3.org/2000/svg">
  <defs
     id="defs34" />
  <sodipodi:namedview
     id="namedview32"
     pagecolor="#ffffff"
     bordercolor="#666666"
     borderopacity="1.0"
     inkscape:showpageshadow="2"
     inkscape:pageopacity="0.0"
     inkscape:pagecheckerboard="0"
     inkscape:deskcolor="#d1d1d1"
     showgrid="false"
     inkscape:zoom="7.376471"
     inkscape:cx="25.21531"
     inkscape:cy="-0.6778309"
     inkscape:window-width="1920"
     inkscape:window-height="1009"
     inkscape:window-x="1916"
     inkscape:window-y="-4"
     inkscape:window-maximized="1"
     inkscape:current-layer="g878" />
  <g
     transform="translate(-155.62,-165.2)"
     id="g28"
     style="fill:#000000;fill-opacity:1">
    <g
       id="g878"
       transform="translate(13.438366)">
      <path
         d="m 193.96605,483.36799 c -2.63664,0 -4.57018,-0.52732 -5.71273,-1.66987 -1.23043,-1.14254 -1.84564,-3.07608 -1.84564,-5.8885 V 274.37018 c 0,-2.81242 0.61521,-4.74596 1.84564,-5.8885 1.23044,-1.14255 3.16397,-1.66988 5.71273,-1.66988 h 21.70835 c 4.65807,0 7.47049,2.19721 8.43725,6.6795 l 2.10932,7.82203 c 6.06427,-5.80061 13.35898,-10.45868 21.88413,-13.88631 8.52514,-3.42763 17.22606,-5.09751 26.10275,-5.09751 19.51115,0 34.97945,7.11894 46.4049,21.44469 11.42545,14.32575 17.05028,33.66113 17.05028,58.00612 0,16.69873 -2.81241,31.28815 -8.43725,43.76826 -5.62484,12.4801 -13.2711,22.0599 -22.93879,28.82728 -9.66768,6.76738 -20.74158,10.10713 -33.22168,10.10713 -8.26148,0 -16.08352,-1.31832 -23.554,-3.95496 -7.47049,-2.63664 -13.79843,-6.24005 -18.98383,-10.89812 v 66.17971 c 0,2.81242 -0.52733,4.74596 -1.66987,5.8885 -1.14254,1.14255 -3.07608,1.66987 -5.8885,1.66987 z m 66.17971,-92.10669 c 11.24967,0 19.59904,-3.86707 24.96021,-11.51333 5.36117,-7.64627 7.99782,-19.77482 7.99782,-36.20989 0,-16.69873 -2.63665,-28.91517 -7.82204,-36.56143 -5.27329,-7.64626 -13.62265,-11.51334 -25.0481,-11.51334 -10.45868,0 -20.30214,2.72453 -29.61828,8.17359 v 79.45081 c 8.78881,5.44906 18.63227,8.17359 29.53039,8.17359 z"
         id="path2"
         style="fill:#0171d7;fill-opacity:1;stroke-width:0.878881" />
      <path
         d="m 374.83968,421.14324 c -2.63664,0 -4.57017,-0.61521 -5.71272,-1.84564 -1.14254,-1.23044 -1.84565,-3.07609 -1.84565,-5.71273 V 274.37018 c 0,-2.81242 0.61522,-4.74596 1.84565,-5.8885 1.23043,-1.14255 3.07608,-1.66988 5.71272,-1.66988 h 21.79624 c 4.65807,0 7.47049,2.19721 8.43726,6.6795 l 3.95496,16.34718 c 8.0857,-8.8767 15.64408,-15.11675 22.8509,-18.89594 7.11893,-3.6913 14.76519,-5.62483 22.8509,-5.62483 h 4.21862 c 2.81242,0 4.83385,0.52733 6.06428,1.66987 1.23043,1.14254 1.84565,3.07608 1.84565,5.8885 v 25.39965 c 0,2.63664 -0.52733,4.48229 -1.66987,5.71273 -1.14255,1.23043 -3.07609,1.84564 -5.88851,1.84564 -1.4062,0 -3.25185,-0.0879 -5.44906,-0.35155 -2.1972,-0.17577 -5.00961,-0.26366 -8.43725,-0.26366 -4.65807,0 -10.2829,0.7031 -16.87451,1.93354 -6.67949,1.31832 -12.30433,2.98819 -16.87451,5.00961 v 101.42283 c 0,2.63664 -0.52732,4.48229 -1.66987,5.71273 -1.14254,1.23043 -3.07608,1.84564 -5.8885,1.84564 z"
         id="path4"
         style="fill:#0171d7;fill-opacity:1;stroke-width:0.878881" />
      <path
         d="m 510.09942,242.90625 c -7.64627,0 -13.79843,-2.10931 -18.4565,-6.32794 -4.65807,-4.21863 -6.94315,-9.93135 -6.94315,-17.22606 0,-7.29471 2.28508,-13.00743 6.94315,-17.22606 4.65807,-4.21863 10.72235,-6.32794 18.4565,-6.32794 7.64626,0 13.79842,2.10931 18.45649,6.32794 4.65807,4.21863 6.94316,9.93135 6.94316,17.22606 0,7.29471 -2.28509,13.00743 -6.94316,17.22606 -4.65807,4.21863 -10.81023,6.32794 -18.45649,6.32794 z m -14.50153,178.23699 c -2.63665,0 -4.4823,-0.61521 -5.71273,-1.84564 -1.23043,-1.23044 -1.84565,-3.07609 -1.84565,-5.71273 V 274.37018 c 0,-2.81242 0.61522,-4.74596 1.84565,-5.8885 1.23043,-1.14255 3.07608,-1.66988 5.71273,-1.66988 h 29.00306 c 2.81241,0 4.74595,0.52733 5.8885,1.66988 1.14254,1.14254 1.66987,3.07608 1.66987,5.8885 v 139.21469 c 0,2.63664 -0.52733,4.48229 -1.66987,5.71273 -1.14255,1.23043 -3.07609,1.84564 -5.8885,1.84564 z"
         id="path6"
         style="fill:#0171d7;fill-opacity:1;stroke-width:0.878881" />
      <path
         d="m 811.28548,425.62554 c -24.96021,0 -44.11981,-6.85527 -57.56669,-20.56581 -13.35898,-13.71054 -20.03847,-33.30958 -20.03847,-58.885 0,-26.19065 6.85526,-46.75645 20.5658,-61.60954 13.71054,-14.85308 32.69436,-22.32357 57.12724,-22.32357 18.72016,0 33.39747,4.57018 43.94404,13.62265 10.54656,9.05248 15.81985,21.18103 15.81985,36.20989 0,15.11674 -5.71273,26.54219 -17.05029,34.27634 -11.42544,7.73415 -28.12418,11.60123 -50.27197,11.60123 -11.51334,0 -21.44469,-1.14255 -29.88194,-3.33975 1.23043,13.53476 5.27328,23.20245 12.21644,29.00306 6.94316,5.80061 17.48972,8.78881 31.55181,8.78881 5.62484,0 11.16179,-0.35155 16.43507,-1.05466 5.36117,-0.7031 12.74377,-2.28509 22.23568,-4.65807 0.61522,-0.17577 1.23044,-0.35155 1.84565,-0.43944 0.61522,-0.0879 1.14255,-0.17577 1.4941,-0.17577 3.42763,0 5.09751,2.28509 5.09751,6.94315 v 13.88632 c 0,3.25186 -0.43944,5.44906 -1.31832,6.76738 -0.87888,1.31832 -2.63665,2.46087 -5.27329,3.51552 -14.85308,5.62484 -30.40927,8.43726 -46.93222,8.43726 z m -10.01924,-94.83123 c 10.2829,0 17.75339,-1.58198 22.32357,-4.65806 4.57017,-3.07609 6.94315,-7.90993 6.94315,-14.32576 0,-12.65588 -7.55837,-18.98382 -22.67512,-18.98382 -19.33537,0 -30.49716,11.86489 -33.57324,35.68255 8.17359,1.4941 17.13817,2.28509 26.98164,2.28509 z"
         id="path10"
         style="fill:#0171d7;fill-opacity:1;stroke-width:0.878881" />
      <path
         d="m 807.91725,590.8551 c -75.72542,63.54307 -185.52729,97.37997 -280.02953,97.37997 -132.51949,0 -251.82567,-55.72103 -342.07802,-148.44294 -7.10891,-7.29471 -0.7727,-17.22606 7.72709,-11.60122 97.43853,64.50984 217.90378,103.26847 342.30983,103.26847 83.91614,0 176.17752,-19.77481 261.09818,-60.81854 12.74969,-6.15216 23.49033,9.66769 10.97245,20.21426 z"
         fill-rule="evenodd"
         id="path12"
         style="fill:#0171d7;fill-opacity:1;stroke-width:0.824087" />
      <path
         d="m 833.01022,551.56593 c -10.986,-14.06209 -72.8592,-6.67949 -100.63183,-3.33975 -8.43725,1.05466 -9.66769,-6.32794 -2.10931,-11.68911 49.3052,-34.6279 130.07433,-24.60866 139.47836,-13.00743 9.49188,11.68911 -2.46087,92.7219 -48.68999,131.30476 -7.11894,5.97639 -13.88632,2.81242 -10.72235,-5.0975 10.3708,-25.92698 33.66113,-84.02099 22.67512,-98.17097 z"
         fill-rule="evenodd"
         id="path14"
         style="fill:#0171d7;fill-opacity:1;stroke-width:0.878881" />
      <text
         xml:space="preserve"
         style="font-weight:500;font-size:295.564px;line-height:1.25;font-family:'Motoya Maru Pr6';-inkscape-font-specification:'Motoya Maru Pr6 Medium';stroke-width:13.8545;fill:#0171d7;fill-opacity:1"
         x="546.16321"
         y="418.42386"
         id="text478"><tspan
           sodipodi:role="line"
           id="tspan476"
           style="font-style:normal;font-variant:normal;font-weight:bold;font-stretch:normal;font-size:295.564px;font-family:'Amazon Ember Display';-inkscape-font-specification:'Amazon Ember Display Bold';stroke-width:13.8545;fill:#0171d7;fill-opacity:1"
           x="546.16321"
           y="418.42386">d</tspan></text>
    </g>
  </g>
</svg>
